<svg width="10" height="10" viewBox="0 0 10 10" fill="none" xmlns="http://www.w3.org/2000/svg">
<path d="M5.20663 8.44091L7.57101 9.93866C7.87326 10.1299 8.24826 9.84528 8.15863 9.49241L7.47576 6.80553C7.45647 6.73069 7.45869 6.65192 7.48217 6.57829C7.50566 6.50465 7.54945 6.43914 7.60851 6.38928L9.72875 4.62491C10.007 4.39316 9.86375 3.93078 9.50563 3.90753L6.73701 3.72753C6.66246 3.72224 6.59096 3.69589 6.53081 3.65154C6.47066 3.6072 6.42435 3.54668 6.39726 3.47703L5.36451 0.876781C5.33638 0.802883 5.28647 0.739278 5.22137 0.6944C5.15627 0.649521 5.07907 0.625488 5.00001 0.625488C4.92094 0.625488 4.84374 0.649521 4.77864 0.6944C4.71354 0.739278 4.66363 0.802883 4.63551 0.876781L3.60276 3.47703C3.57572 3.54675 3.52943 3.60734 3.46928 3.65176C3.40913 3.69618 3.33759 3.72259 3.26301 3.72791L0.494381 3.90791C0.136631 3.93078 -0.00736856 4.39316 0.271256 4.62491L2.39151 6.38966C2.4505 6.43948 2.49424 6.50493 2.51772 6.57849C2.54121 6.65205 2.54347 6.73074 2.52426 6.80553L1.89126 9.29741C1.78363 9.72078 2.23401 10.0624 2.59626 9.83253L4.79376 8.44091C4.85552 8.40164 4.92719 8.38078 5.00038 8.38078C5.07357 8.38078 5.14524 8.40164 5.20701 8.44091H5.20663Z" fill="#CCCCCC"/>
</svg>
