<svg width="85" height="84" viewBox="0 0 85 84" fill="none" xmlns="http://www.w3.org/2000/svg">
<path d="M42.6968 37.5691C48.2383 37.5691 53.5528 39.764 57.4712 43.671C61.3896 47.578 63.5909 52.8771 63.5909 58.4024V83.4024H55.2333V58.4024C55.2335 55.214 54.0117 52.1461 51.818 49.8263C49.6243 47.5066 46.6245 46.1103 43.4323 45.9233L42.6968 45.9024C39.4992 45.9022 36.4223 47.1204 34.0957 49.3078C31.7692 51.4951 30.3689 54.4862 30.1813 57.6691L30.1604 58.4024V83.4024H21.8028V58.4024C21.8028 52.8771 24.0041 47.578 27.9225 43.671C31.8409 39.764 37.1554 37.5691 42.6968 37.5691ZM15.5345 50.0691C16.7004 50.0691 17.8329 50.2066 18.9194 50.4608C18.2049 52.5816 17.7818 54.7892 17.6616 57.0233L17.6239 58.4024V58.7608C17.1436 58.5894 16.644 58.4774 16.1363 58.4274L15.5345 58.4024C13.9763 58.4025 12.474 58.9813 11.3205 60.0258C10.1671 61.0704 9.44516 62.5059 9.29557 64.0524L9.26632 64.6524V83.4024H0.908691V64.6524C0.908691 60.7847 2.44962 57.0754 5.1925 54.3405C7.93538 51.6055 11.6555 50.0691 15.5345 50.0691ZM69.8591 50.0691C73.7381 50.0691 77.4583 51.6055 80.2012 54.3405C82.944 57.0754 84.485 60.7847 84.485 64.6524V83.4024H76.1273V64.6524C76.1273 63.0987 75.5468 61.6008 74.4992 60.4507C73.4516 59.3006 72.0119 58.5807 70.4609 58.4316L69.8591 58.4024C69.1278 58.4024 68.4258 58.5274 67.7697 58.7566V58.4024C67.7697 55.6274 67.3184 52.9608 66.4785 50.4691C67.5854 50.2019 68.7203 50.0676 69.8591 50.0691ZM15.5345 25.0691C18.3053 25.0691 20.9625 26.1666 22.9217 28.1201C24.8809 30.0736 25.9816 32.7231 25.9816 35.4858C25.9816 38.2484 24.8809 40.8979 22.9217 42.8515C20.9625 44.805 18.3053 45.9024 15.5345 45.9024C12.7638 45.9024 10.1066 44.805 8.14737 42.8515C6.18817 40.8979 5.08751 38.2484 5.08751 35.4858C5.08751 32.7231 6.18817 30.0736 8.14737 28.1201C10.1066 26.1666 12.7638 25.0691 15.5345 25.0691ZM69.8591 25.0691C72.6299 25.0691 75.2871 26.1666 77.2463 28.1201C79.2055 30.0736 80.3062 32.7231 80.3062 35.4858C80.3062 38.2484 79.2055 40.8979 77.2463 42.8515C75.2871 44.805 72.6299 45.9024 69.8591 45.9024C67.0884 45.9024 64.4312 44.805 62.472 42.8515C60.5128 40.8979 59.4121 38.2484 59.4121 35.4858C59.4121 32.7231 60.5128 30.0736 62.472 28.1201C64.4312 26.1666 67.0884 25.0691 69.8591 25.0691ZM15.5345 33.4024C14.9804 33.4024 14.4489 33.6219 14.0571 34.0126C13.6653 34.4033 13.4451 34.9332 13.4451 35.4858C13.4451 36.0383 13.6653 36.5682 14.0571 36.9589C14.4489 37.3496 14.9804 37.5691 15.5345 37.5691C16.0887 37.5691 16.6201 37.3496 17.012 36.9589C17.4038 36.5682 17.6239 36.0383 17.6239 35.4858C17.6239 34.9332 17.4038 34.4033 17.012 34.0126C16.6201 33.6219 16.0887 33.4024 15.5345 33.4024ZM69.8591 33.4024C69.305 33.4024 68.7735 33.6219 68.3817 34.0126C67.9899 34.4033 67.7697 34.9332 67.7697 35.4858C67.7697 36.0383 67.9899 36.5682 68.3817 36.9589C68.7735 37.3496 69.305 37.5691 69.8591 37.5691C70.4133 37.5691 70.9447 37.3496 71.3366 36.9589C71.7284 36.5682 71.9485 36.0383 71.9485 35.4858C71.9485 34.9332 71.7284 34.4033 71.3366 34.0126C70.9447 33.6219 70.4133 33.4024 69.8591 33.4024ZM42.6968 0.0690918C47.13 0.0690918 51.3816 1.82504 54.5163 4.95065C57.651 8.07625 59.4121 12.3155 59.4121 16.7358C59.4121 21.156 57.651 25.3953 54.5163 28.5209C51.3816 31.6465 47.13 33.4024 42.6968 33.4024C38.2637 33.4024 34.0121 31.6465 30.8774 28.5209C27.7426 25.3953 25.9816 21.156 25.9816 16.7358C25.9816 12.3155 27.7426 8.07625 30.8774 4.95065C34.0121 1.82504 38.2637 0.0690918 42.6968 0.0690918ZM42.6968 8.40242C40.4803 8.40242 38.3545 9.2804 36.7871 10.8432C35.2197 12.406 34.3392 14.5256 34.3392 16.7358C34.3392 18.9459 35.2197 21.0655 36.7871 22.6283C38.3545 24.1911 40.4803 25.0691 42.6968 25.0691C44.9134 25.0691 47.0392 24.1911 48.6066 22.6283C50.1739 21.0655 51.0545 18.9459 51.0545 16.7358C51.0545 14.5256 50.1739 12.406 48.6066 10.8432C47.0392 9.2804 44.9134 8.40242 42.6968 8.40242Z" fill="black"/>
</svg>
