<svg width="83" height="77" viewBox="0 0 83 77" fill="none" xmlns="http://www.w3.org/2000/svg">
<path d="M81.9603 68.814H7.83859V1.78271C7.83859 1.31006 7.45074 0.92334 6.97671 0.92334H0.943546C0.469511 0.92334 0.081665 1.31006 0.081665 1.78271V75.689C0.081665 76.1616 0.469511 76.5483 0.943546 76.5483H81.9603C82.4343 76.5483 82.8222 76.1616 82.8222 75.689V69.6733C82.8222 69.2007 82.4343 68.814 81.9603 68.814ZM19.237 52.2388C19.5709 52.5718 20.1096 52.5718 20.4544 52.2388L35.3541 37.4575L49.1011 51.2505C49.4351 51.5835 49.9845 51.5835 50.3185 51.2505L79.9888 21.6772C80.3227 21.3442 80.3227 20.7964 79.9888 20.4634L75.7225 16.2095C75.5605 16.0495 75.3417 15.9598 75.1137 15.9598C74.8858 15.9598 74.667 16.0495 74.505 16.2095L49.726 40.9058L36.0005 27.1343C35.8385 26.9743 35.6198 26.8846 35.3918 26.8846C35.1639 26.8846 34.9451 26.9743 34.7831 27.1343L14.9814 46.7603C14.821 46.9218 14.731 47.1399 14.731 47.3672C14.731 47.5945 14.821 47.8126 14.9814 47.9741L19.237 52.2388Z" fill="black"/>
</svg>
