<svg width="85" height="84" viewBox="0 0 85 84" fill="none" xmlns="http://www.w3.org/2000/svg">
<path d="M79.4208 1.6525C74.7294 0.604868 69.9368 0.0739095 65.1292 0.0691663C60.5889 -0.218276 56.0364 0.392076 51.7334 1.86512C47.4305 3.33817 43.4621 5.64484 40.0563 8.6525C35.5711 13.1247 31.1276 17.5831 26.7259 22.0275C21.6696 21.4858 9.67636 21.1942 1.65303 29.2775C0.874727 30.0582 0.437866 31.1142 0.437866 32.215C0.437866 33.3158 0.874727 34.3718 1.65303 35.1525L48.8736 82.3192C49.6566 83.0952 50.7157 83.5308 51.8197 83.5308C52.9237 83.5308 53.9828 83.0952 54.7658 82.3192C62.9145 73.9858 62.6637 62.2358 62.1623 57.3192L75.5763 43.9858C88.9067 30.6942 82.8474 5.73583 82.5967 4.69417C82.4038 3.94264 82.0043 3.25975 81.4432 2.72236C80.8821 2.18498 80.1816 1.81445 79.4208 1.6525ZM69.5588 38.1108L54.6822 52.8608C54.2004 53.3459 53.8456 53.9416 53.6488 54.5955C53.4521 55.2494 53.4195 55.9414 53.5539 56.6108C54.4566 62.185 53.6709 67.901 51.2973 73.0275L10.8882 32.6525C16.1111 30.2557 21.9496 29.528 27.6035 30.5692C28.2724 30.656 28.9525 30.5801 29.5856 30.3479C30.2187 30.1157 30.786 29.7342 31.239 29.2358C31.239 29.2358 37.0894 23.1942 45.9067 14.4025C51.3284 10.0613 58.1927 7.91873 65.1292 8.4025C68.392 8.41862 71.6481 8.6973 74.8659 9.23583C75.8688 15.1942 77.4567 30.2358 69.5588 38.1108Z" fill="black"/>
<path d="M57.7326 34.6525C62.3484 34.6525 66.0903 30.9215 66.0903 26.3192C66.0903 21.7168 62.3484 17.9858 57.7326 17.9858C53.1168 17.9858 49.375 21.7168 49.375 26.3192C49.375 30.9215 53.1168 34.6525 57.7326 34.6525Z" fill="black"/>
<path d="M12.894 58.4025C4.53638 62.5692 4.53638 79.2359 4.53638 79.2359C12.2717 79.0158 19.6768 76.0623 25.4305 70.9025L12.894 58.4025Z" fill="black"/>
</svg>
